<svg width="100" height="100" viewBox="0 0 100 100" fill="none" xmlns="http://www.w3.org/2000/svg">
<g clip-path="url(#clip0_806_69208)">
<g clip-path="url(#clip1_806_69208)">
<path d="M98.2172 36.7125C95.3929 26.3431 89.0512 16.9453 80.3467 10.3253C71.459 3.56621 60.9945 0 50.0223 0C27.6164 0 7.75409 15.139 1.82973 36.8053C0.623989 41.1575 0.0234375 45.6002 0.0234375 50.0452C0.0234375 54.4902 0.623989 58.8866 1.82973 63.3316C4.65395 73.7009 10.9957 83.0988 19.7002 89.7187C28.5902 96.4315 39.0524 99.9977 50.0246 99.9977C72.4792 99.9977 92.2928 84.9051 98.2195 63.2365C99.3765 59.072 99.9771 54.627 99.9771 49.9965C99.9771 45.366 99.3765 40.9697 98.2195 36.7102L98.2172 36.7125ZM93.5866 35.1381C94.1431 35.1381 94.6509 35.4627 94.8364 36.0192C94.9756 36.2951 95.066 36.5734 95.1611 36.8053C95.2074 37.0835 95.2074 37.3594 95.0683 37.5913C95.0219 37.7768 94.9292 38.0087 94.8828 38.2869C94.6509 39.073 94.375 39.9054 94.0504 40.8329C93.9113 41.1111 93.8185 41.3894 93.6794 41.6676L93.2156 42.8247C92.9861 43.4252 92.7078 44.0281 92.4296 44.5359C92.3368 44.8142 92.2 45.1852 91.9658 45.4611C91.734 45.7857 91.4117 45.9712 90.9943 46.0176H90.9015C90.5769 46.0176 90.2546 45.8785 89.9764 45.6466C89.6054 45.2756 89.3271 44.8605 89.2808 44.7214C89.0489 44.4895 88.817 44.1672 88.402 43.7035L87.7991 42.9638C87.7991 42.9638 86.5029 41.5285 86.3638 41.343L85.2067 40.2323C84.9308 39.9077 84.7894 39.4463 84.8821 39.0266C84.9749 38.5629 85.2531 38.2405 85.6682 38.055L93.1693 35.2308C93.3084 35.1381 93.4475 35.1381 93.5866 35.1381ZM89.0048 50.6017C88.8193 50.88 88.5874 51.2046 88.5411 51.2973C88.2628 51.622 88.0333 51.9466 87.8014 52.3153C87.8014 52.3616 87.4768 52.7326 87.4768 52.779C87.2449 53.0573 87.0594 53.2868 86.7371 53.7042L84.8844 55.8815C84.5621 56.2061 84.2839 56.5307 83.9593 56.853C83.6346 57.224 83.2196 57.6391 82.8022 58.0564L81.8283 58.9352C81.4573 59.3062 81.0887 59.6749 80.4858 60.1387C80.1612 60.4633 79.8365 60.7415 79.6997 60.7415C79.4679 61.0198 79.1896 61.2053 78.9601 61.3908L78.4036 61.8522L77.3393 62.5919C77.0633 62.8238 76.7387 63.0556 76.0431 63.5171L74.9788 64.1663C74.5151 64.4909 74.1 64.7692 73.6826 64.9524C73.6826 64.9524 72.8038 65.5065 72.2937 65.7848C72.1546 65.8312 71.9691 65.9239 71.7859 66.0166L71.1367 66.3413C70.9975 66.434 70.812 66.434 70.6289 66.434C70.2579 66.434 69.8428 66.2949 69.6109 65.9726C69.2399 65.5089 69.2399 64.8156 69.5646 64.3518C72.667 60.1874 74.3319 55.2322 74.3319 49.9988C74.3319 44.7655 72.6647 39.8613 69.5646 35.6946C69.2399 35.2332 69.2399 34.5839 69.6109 34.1202C69.8428 33.7979 70.2602 33.6124 70.6289 33.6124C70.8144 33.6124 70.9999 33.6587 71.1367 33.7051L72.5256 34.352L73.4971 35.0013C73.8681 35.1404 74.1464 35.3236 74.4687 35.5091L74.8861 35.7873C75.2107 35.9728 75.5817 36.2488 75.9967 36.527C76.3214 36.7125 76.5996 36.898 76.8755 37.1299L77.2465 37.4058C77.7103 37.6841 78.1253 37.9623 78.45 38.2405C78.8673 38.5629 79.3311 38.8875 79.4679 39.1194C79.7925 39.3048 80.0244 39.4903 80.2539 39.7199L80.7177 40.0445L82.8486 42.034L83.2196 42.405C83.4051 42.6369 83.637 42.8224 83.8688 43.1006C84.2398 43.4252 84.5644 43.7939 84.8867 44.1649L85.8142 45.2292C86.0461 45.4611 86.2316 45.737 86.4635 46.0153L86.8345 46.4326L87.6669 47.5433C87.8524 47.7752 88.0379 48.0511 88.2211 48.3294L88.4066 48.6076C88.5457 48.7931 88.7776 49.0714 88.9144 49.2545C89.1926 49.6719 89.1926 50.182 89.0071 50.5971L89.0048 50.6017ZM89.144 25.091C89.2367 25.091 89.3294 25.1374 89.4199 25.1374C89.7909 25.2301 90.0691 25.4156 90.2546 25.7379C91.1798 27.266 92.0586 28.9332 92.847 30.6908C92.9861 31.0154 92.9861 31.3864 92.847 31.7551C92.7078 32.0797 92.4783 32.3115 92.1073 32.4507L81.8283 36.3392C81.6892 36.3856 81.5524 36.4319 81.3646 36.4319C81.04 36.4319 80.7154 36.2928 80.4394 36.0169C80.3003 35.8778 80.0684 35.7386 79.6047 35.414C79.5119 35.3676 79.2824 35.0894 79.2337 35.043C78.9114 34.9503 78.6795 34.7648 78.3549 34.4865C77.9839 34.301 77.708 33.886 77.708 33.4222C77.708 32.9585 77.9398 32.5434 78.2621 32.3116L88.402 25.3206C88.6338 25.1814 88.8657 25.0887 89.144 25.0887V25.091ZM81.3646 16.8989C81.6428 16.6207 81.9675 16.4816 82.3385 16.4375H82.3848C82.7095 16.4375 83.0318 16.5766 83.2636 16.8062C84.5134 18.0119 85.7169 19.3985 87.013 21.0657C87.1985 21.3439 87.2913 21.7149 87.2449 22.0372C87.1985 22.4082 87.013 22.7305 86.6884 22.916L74.5127 31.3423C74.2809 31.4814 74.049 31.5742 73.7731 31.5742C73.5412 31.5742 73.3093 31.4814 73.0774 31.3423C72.7064 31.1568 72.245 30.9249 71.6422 30.6026C71.2248 30.4635 70.9025 30.1389 70.7633 29.7238C70.6706 29.2601 70.7634 28.845 71.088 28.4717L81.3646 16.8989ZM73.3093 9.72245C73.4484 9.67607 73.5389 9.67607 73.6803 9.67607C73.9122 9.67607 74.1441 9.72245 74.3272 9.86157C76.0872 10.8795 77.5688 11.8997 78.9578 13.0104C79.2337 13.24 79.4215 13.5646 79.4656 13.9356C79.4656 14.2602 79.3728 14.6312 79.1409 14.9071L67.5218 27.9616C67.2899 28.2399 66.9189 28.4254 66.5479 28.4254H66.3624C66.0865 28.379 65.8082 28.2862 65.159 28.103C65.0199 28.0567 64.9271 28.0103 64.8344 27.9639C64.6025 27.8712 64.3706 27.688 64.2338 27.4561C64.0019 27.0387 64.0019 26.5773 64.1874 26.1599L72.521 10.374C72.6601 10.0494 72.9847 9.81752 73.307 9.72477L73.3093 9.72245ZM63.0327 5.27744C63.2182 5.18469 63.4501 5.09194 63.6796 5.09194C63.8187 5.09194 63.9579 5.13831 64.097 5.18469C65.8569 5.78756 67.6168 6.38811 69.2353 7.12779C69.5599 7.26691 69.8382 7.54516 69.9309 7.91384C70.07 8.23846 70.0237 8.60946 69.8846 8.93176L60.9945 25.9698C60.765 26.4312 60.2989 26.6631 59.8375 26.6631C59.6984 26.6631 59.5592 26.6631 59.4201 26.6167C59.281 26.6167 58.7245 26.4776 58.5877 26.4312C57.9384 26.1994 57.5698 25.5524 57.7553 24.8568L62.3834 6.10522C62.4762 5.73655 62.7081 5.4583 63.0327 5.2728V5.27744ZM51.4576 4.44501C51.4576 4.07401 51.6431 3.74939 51.8749 3.51984C52.1068 3.28796 52.4314 3.14884 52.8024 3.14884H52.8488C54.8383 3.24159 56.691 3.47346 58.4972 3.79808C58.8196 3.89083 59.1442 4.07633 59.3297 4.40096C59.5592 4.6792 59.6056 5.0502 59.5152 5.41888L54.7015 24.8638C54.5624 25.4666 53.4053 25.8353 52.8024 25.8353C52.0604 25.8353 51.4599 25.2325 51.4599 24.4928V4.44501H51.4576ZM4.3757 53.6114C3.6824 53.6114 3.1259 53.1036 3.07953 52.408C3.03315 51.622 3.03315 50.8336 3.03315 50.0475C3.03315 45.788 3.58733 41.5749 4.70032 37.5936C8.72796 22.8697 19.7002 11.065 34.0508 5.88031C35.2543 5.46294 36.4577 5.23106 37.7075 5.23106C43.6782 5.23106 48.5406 10.1375 48.5406 16.1569C48.5406 21.3416 44.9303 25.833 39.8825 26.7582C39.05 26.8973 38.2153 27.0828 37.3365 27.3587C35.6693 27.7761 34.0485 28.2862 32.43 28.9332C31.8736 29.1187 31.4121 29.3041 30.7629 29.5801C28.1242 30.6908 25.5318 32.0333 22.8467 33.7492C22.8004 33.7955 22.4294 34.0251 22.3389 34.1178C21.6897 34.4888 21.0891 34.8598 20.1616 35.5995C20.1616 35.5995 19.1437 36.4319 18.7727 36.6638L17.7548 37.5449C17.6157 37.6841 16.6441 38.5165 16.6441 38.5165C16.3195 38.7947 15.9949 39.073 15.7166 39.3489C12.5678 42.3122 9.83864 45.6002 7.61497 49.2568C7.1976 49.9525 6.78254 50.6458 6.41155 51.3414L5.6255 52.6839C5.48637 53.1941 5.02263 53.6114 4.42207 53.6114H4.3757ZM30.4383 35.6946C27.3358 39.8613 25.7173 44.8605 25.7173 50.0475C25.7173 55.2345 27.3381 60.1874 30.4383 64.3518C30.8093 64.8619 30.8093 65.5089 30.3919 65.9726C30.16 66.2972 29.7913 66.434 29.374 66.434C29.1885 66.434 29.003 66.3876 28.8175 66.2949L27.614 65.7384C27.3822 65.5993 27.1503 65.4602 26.8744 65.277L26.457 65.0451C26.1324 64.8596 25.7614 64.6277 25.2072 64.3054C24.9313 64.1663 24.653 63.9808 24.3748 63.7513L22.8004 62.6406C22.3366 62.4087 21.8752 62.0841 21.2723 61.5763C20.9477 61.298 20.6718 61.1125 20.4863 60.8807C20.1153 60.6511 19.7466 60.3265 19.3292 60.0019C19.0046 59.6772 18.5895 59.3086 18.2185 58.9839C18.2185 58.9839 16.9224 57.7341 16.7369 57.5486C16.5977 57.3631 16.4586 57.2263 16.0412 56.9017C15.8094 56.5771 15.5334 56.2525 15.1161 55.8374L14.2836 54.8195C13.9126 54.4972 13.544 54.0334 13.2657 53.6624L12.9875 53.2914C12.7556 52.9668 12.5237 52.6886 12.3869 52.459C12.0623 52.0416 11.7377 51.6266 11.6472 51.4411C11.5081 51.302 11.3226 51.0237 11.1835 50.7942C10.9053 50.4232 10.8589 49.9154 11.0908 49.4516C11.2299 49.1734 11.4617 48.8488 11.4617 48.8488C11.6936 48.5264 11.9255 48.2018 12.2942 47.6917C12.4797 47.4598 12.6188 47.228 12.8043 46.9961C12.9434 46.857 13.0802 46.6738 13.268 46.4419C13.4535 46.1637 13.6854 45.9341 14.1468 45.3776C14.4251 45.0066 14.7497 44.6379 15.2111 44.1278C15.5358 43.8032 15.814 43.5249 16.0436 43.2003C16.0899 43.2003 16.4146 42.8316 16.4609 42.7829C16.7392 42.5534 16.9711 42.2288 17.2957 41.9969L17.618 41.6746C17.8499 41.4427 18.0817 41.2572 18.1281 41.2572C18.5455 40.7494 19.0533 40.332 19.2852 40.1929C19.7025 39.7755 20.0712 39.4532 20.3958 39.2677C20.8132 38.8504 21.1819 38.5281 21.5993 38.2962C21.9239 38.018 22.3389 37.6933 22.6635 37.5078C23.0345 37.1855 23.5423 36.8609 24.0061 36.5363L25.024 35.9334C25.3486 35.7015 25.6733 35.4697 26.4129 35.0546C26.8303 34.8227 27.1549 34.6372 27.7091 34.3149C27.8946 34.2222 28.8198 33.7608 28.8198 33.7608C29.0053 33.668 29.1908 33.6216 29.3763 33.6216C29.7937 33.6216 30.1623 33.7608 30.3942 34.0854C30.8116 34.5491 30.8116 35.2447 30.4406 35.7062L30.4383 35.6946ZM6.45792 64.9083C5.90143 64.9083 5.34725 64.5837 5.16175 64.0295C5.02263 63.7513 4.92988 63.473 4.88582 63.2411C4.83945 62.9652 4.83945 62.687 4.9322 62.4551C5.02494 62.2232 5.07132 62.0377 5.16407 61.6667L5.44232 60.8343C5.62782 60.2337 5.81331 59.6772 6.04519 59.1231L6.23069 58.7057C6.32344 58.4761 6.41618 58.2883 6.50893 57.8733C6.87993 57.0872 7.20455 56.2988 7.75873 55.1882C7.85148 55.0027 7.94423 54.7708 8.12973 54.5876C8.3616 54.263 8.68622 54.0775 9.05722 54.0775C9.1036 54.0311 9.14997 54.0311 9.14997 54.0311C9.52097 54.0311 9.84559 54.1702 10.0775 54.4485C10.3534 54.6804 10.5853 55.0027 10.7708 55.3296C10.9563 55.5151 11.1418 55.7006 11.2809 55.9302C11.42 56.0693 11.5128 56.2084 11.6983 56.3939C12.0693 56.904 12.4843 57.3214 12.9017 57.8292C13.1336 58.0611 13.4095 58.3857 13.7805 58.7544C14.1515 59.1254 14.5202 59.5404 14.8448 59.9114C15.123 60.2361 15.2622 60.6511 15.1694 61.0685C15.0303 61.4858 14.752 61.8545 14.337 61.9936L6.88225 64.8642C6.74313 64.9106 6.604 64.9106 6.46488 64.9106L6.45792 64.9083ZM10.9029 74.953C10.8102 74.953 10.7174 74.953 10.6247 74.9067C10.3001 74.8603 9.97544 74.6284 9.79226 74.3061C8.95752 72.9172 8.12509 71.2964 7.19992 69.3533C7.06079 69.0287 7.06079 68.6577 7.19992 68.3354C7.33904 68.0108 7.61729 67.7325 7.93959 67.5957L18.1698 63.7072C18.309 63.6608 18.4945 63.6144 18.6336 63.6144C18.9582 63.6144 19.2365 63.7536 19.466 63.9367C19.6515 64.0759 20.9477 65.001 21.0404 65.1402C21.2259 65.2329 21.4578 65.372 21.7337 65.5575C22.1047 65.7894 22.3366 66.1604 22.3366 66.6218C22.383 67.0856 22.1511 67.503 21.7801 67.7325L11.6426 74.7235C11.4571 74.8626 11.1789 74.9554 10.9029 74.9554V74.953ZM18.68 83.1475C18.4504 83.4257 18.1258 83.5648 17.7548 83.6089H17.7084C17.3838 83.6089 17.0128 83.4698 16.7809 83.2402C15.4384 81.8977 14.1886 80.416 13.0779 79.0271C12.846 78.7511 12.7556 78.3778 12.802 78.0091C12.8484 77.6381 13.0779 77.3135 13.3562 77.128L25.4854 68.7481C25.7173 68.5626 25.9956 68.4722 26.2715 68.4722C26.457 68.4722 26.6889 68.5649 26.8744 68.6577C27.2917 68.8896 27.7068 69.1214 28.356 69.4437C28.7734 69.5829 29.0957 69.9052 29.2348 70.3225C29.374 70.7863 29.2348 71.2477 28.9566 71.5747L18.68 83.1475ZM26.6889 90.3239C26.5961 90.3703 26.457 90.3703 26.3666 90.3703C26.0883 90.3703 25.8564 90.3239 25.6709 90.1848C24.0965 89.2133 22.5685 88.193 21.1332 87.0823C20.8549 86.8505 20.6694 86.5258 20.6231 86.1572C20.5767 85.7862 20.7158 85.4152 20.9477 85.1392L32.5228 72.0848C32.8011 71.8065 33.172 71.621 33.5407 71.621C33.5871 71.621 33.6799 71.6674 33.7262 71.6674C34.0045 71.7138 34.2827 71.8065 34.9296 71.992C35.0224 71.992 35.1151 72.0384 35.1615 72.0848C35.4398 72.2239 35.6253 72.3607 35.7644 72.639C35.9939 73.0099 36.0403 73.5178 35.8108 73.8911L27.5236 89.677C27.3381 90.0016 27.0599 90.2335 26.6889 90.3262V90.3239ZM37.0142 94.8153C36.7823 94.9081 36.5968 94.9544 36.3649 94.9544C36.2258 94.9544 36.0867 94.9081 35.9476 94.8617C34.1876 94.2611 32.4301 93.6583 30.7629 92.9163C30.4383 92.7772 30.2087 92.4989 30.0673 92.1302C29.9281 91.8056 29.9745 91.4346 30.16 91.1123L39.0941 74.0766C39.326 73.6128 39.6506 73.3369 40.068 73.3369C40.2535 73.3369 40.439 73.3833 40.5758 73.476C40.7613 73.476 41.3154 73.5688 41.4569 73.6151C42.1038 73.847 42.4748 74.5403 42.2893 75.1896L37.6588 93.9388C37.566 94.3075 37.3365 94.6345 37.0119 94.8176L37.0142 94.8153ZM48.5406 95.6014C48.5406 95.9724 48.4015 96.297 48.1232 96.5729C47.8914 96.8025 47.5691 96.8952 47.2444 96.8952H47.1517C45.1599 96.8025 43.3095 96.5729 41.596 96.2483C41.225 96.2019 40.9004 95.97 40.7172 95.6918C40.5317 95.3695 40.4853 94.9985 40.5317 94.6739L45.3477 75.1826C45.5332 74.6261 46.2729 74.2111 46.8758 74.2111C47.0149 74.2111 47.1076 74.2111 47.2468 74.2574C47.9424 74.2574 48.5429 74.8116 48.5429 75.5536V95.5991L48.5406 95.6014ZM50.0107 71.7625L46.4932 61.8824L43.8962 64.7715L44.084 60.8969L34.6213 65.3976L39.1219 55.9371L35.2473 56.1249L38.1156 53.528L28.2355 50.0104L38.1156 46.4929L35.2473 43.8959L39.1219 44.0838L34.6213 34.621L44.084 39.1217L43.8962 35.2471L46.4932 38.1153L50.0107 28.2352L53.5282 38.1153L56.1252 35.2471L55.9374 39.1217L65.4001 34.621L60.8995 44.0838L64.7741 43.8959L61.9058 46.4929L71.765 50.0104L61.9058 53.528L64.7741 56.1249L60.8995 55.9371L65.4001 65.3976L55.9374 60.8969L56.1252 64.7715L53.5282 61.8824L50.0107 71.7625ZM95.3929 62.4551C91.3189 77.1767 80.3003 89.0278 65.9473 94.1661C64.7903 94.6298 63.5405 94.8617 62.2907 94.8617C56.3176 94.8617 51.4576 89.9553 51.4576 83.8895C51.4576 78.7048 55.1142 74.2134 60.1621 73.2882C60.9945 73.1491 61.8293 72.9636 62.6617 72.734C64.3729 72.2726 65.9937 71.7161 67.5241 71.1596L68.2174 70.8837C68.542 70.7909 68.8203 70.6982 69.2353 70.4663C71.874 69.402 74.5127 68.0571 76.7805 66.6682C76.966 66.4363 77.3346 66.2045 77.5665 66.0677C78.2158 65.6062 78.9091 65.1425 79.4656 64.7715L80.2516 64.1686L80.9008 63.6608C81.2718 63.3826 81.5965 63.1043 82.1043 62.6893C82.2434 62.5965 82.3361 62.4597 82.7071 62.1815L84.3743 60.6998C87.384 57.8756 90.1155 54.5436 92.4296 50.7919C93.1252 49.7276 93.6794 48.5705 94.5605 47.0888C94.7924 46.7178 95.2098 46.4396 95.6712 46.4396C95.7639 46.4396 95.8567 46.4396 95.9494 46.486C96.55 46.5787 96.9674 47.0888 97.0137 47.6453C97.0601 48.4314 97.0601 49.2638 97.0601 50.0058C97.0601 54.2653 96.5036 58.4785 95.3929 62.462V62.4551ZM55.7681 57.9243C54.5345 58.8239 53.1085 59.4523 51.5387 59.6819C51.0379 59.7654 50.5347 59.8071 50.0107 59.8071C49.4867 59.8071 48.9835 59.7654 48.4826 59.6819C46.9129 59.4523 45.4892 58.8239 44.2533 57.9243C43.4162 57.3376 42.6835 56.6049 42.0969 55.7678C41.1972 54.5343 40.5688 53.1083 40.3392 51.5385C40.2535 51.0376 40.214 50.5345 40.214 50.0104C40.214 49.4864 40.2558 48.9832 40.3392 48.4824C40.5688 46.9126 41.1972 45.4889 42.0969 44.253C42.6835 43.416 43.4162 42.6832 44.2533 42.0966C45.4868 41.1969 46.9129 40.5686 48.4826 40.339C48.9835 40.2532 49.4867 40.2138 50.0107 40.2138C50.5347 40.2138 51.0379 40.2555 51.5387 40.339C53.1085 40.5686 54.5322 41.1969 55.7681 42.0966C56.6052 42.6832 57.3379 43.416 57.9245 44.253C58.8242 45.4889 59.4526 46.9126 59.6844 48.4824C59.7679 48.9832 59.8097 49.4864 59.8097 50.0104C59.8097 50.5345 59.7679 51.0376 59.6844 51.5385C59.4526 53.1083 58.8242 54.532 57.9245 55.7678C57.3379 56.6049 56.6052 57.3376 55.7681 57.9243Z" fill="#E6DAC8"/>
</g>
</g>
<defs>
<clipPath id="clip0_806_69208">
<rect width="100" height="100" fill="white"/>
</clipPath>
<clipPath id="clip1_806_69208">
<rect width="99.9536" height="100" fill="white" transform="translate(0.0234375)"/>
</clipPath>
</defs>
</svg>
